<?xml version="1.0" encoding="iso-8859-1"?>
<!-- Generator: Adobe Illustrator 19.0.0, SVG Export Plug-In . SVG Version: 6.00 Build 0)  -->
<svg xmlns="http://www.w3.org/2000/svg" xmlns:xlink="http://www.w3.org/1999/xlink" version="1.1" id="Layer_1" x="0px" y="0px" viewBox="0 0 512.132 512.132" style="enable-background:new 0 0 512.132 512.132;" xml:space="preserve" width="512px" height="512px">
<g>
	<g>
		<circle cx="213.333" cy="435.332" r="42.667" fill="#FFFFFF"/>
	</g>
</g>
<g>
	<g>
		<rect x="170.667" y="128.132" width="85.333" height="17.067" fill="#FFFFFF"/>
	</g>
</g>
<g>
	<g>
		<rect x="170.667" y="162.265" width="85.333" height="17.067" fill="#FFFFFF"/>
	</g>
</g>
<g>
	<g>
		<path d="M247.467,76.932H179.2c-5.12,0-8.533,3.413-8.533,8.533v25.6H256v-25.6C256,80.345,252.587,76.932,247.467,76.932z" fill="#FFFFFF"/>
	</g>
</g>
<g>
	<g>
		<path d="M170.667,196.398v25.6c0,5.12,3.413,8.533,8.533,8.533h68.267c5.12,0,8.533-3.413,8.533-8.533v-25.6H170.667z" fill="#FFFFFF"/>
	</g>
</g>
<g>
	<g>
		<rect x="51.2" y="128.132" width="51.2" height="17.067" fill="#FFFFFF"/>
	</g>
</g>
<g>
	<g>
		<rect x="51.2" y="162.265" width="51.2" height="17.067" fill="#FFFFFF"/>
	</g>
</g>
<g>
	<g>
		<circle cx="76.8" cy="435.332" r="25.6" fill="#FFFFFF"/>
	</g>
</g>
<g>
	<g>
		<rect x="51.2" y="196.398" width="51.2" height="17.067" fill="#FFFFFF"/>
	</g>
</g>
<g>
	<g>
		<rect x="51.2" y="93.998" width="51.2" height="17.067" fill="#FFFFFF"/>
	</g>
</g>
<g>
	<g>
		
			<rect x="356.727" y="188.651" transform="matrix(0.9848 -0.1735 0.1735 0.9848 -28.4137 69.3264)" width="51.198" height="17.066" fill="#FFFFFF"/>
	</g>
</g>
<g>
	<g>
		
			<rect x="338.849" y="88.008" transform="matrix(0.9848 -0.1738 0.1738 0.9848 -11.2322 64.8093)" width="51.201" height="17.067" fill="#FFFFFF"/>
	</g>
</g>
<g>
	<g>
		<rect x="350.672" y="154.53" transform="matrix(0.9848 -0.1737 0.1737 0.9848 -22.6041 67.8371)" width="51.2" height="17.067" fill="#FFFFFF"/>
	</g>
</g>
<g>
	<g>
		<rect x="344.76" y="121.257" transform="matrix(0.9848 -0.1737 0.1737 0.9848 -16.9146 66.3044)" width="51.2" height="17.067" fill="#FFFFFF"/>
	</g>
</g>
<g>
	<g>
		<path d="M448,418.265c-1.707-5.12-5.973-11.093-11.093-15.36c-4.267-3.413-9.387-4.267-14.507-4.267c-1.707,0-3.413,0-4.267,0    c-6.827,0.853-12.8,5.12-16.213,10.24c-4.267,5.973-5.12,12.8-4.267,18.773c2.56,13.653,15.36,23.04,29.867,20.48    C441.173,445.572,450.56,432.772,448,418.265z" fill="#FFFFFF"/>
	</g>
</g>
<g>
	<g>
		<path d="M512,476.292L426.667,6.958c-0.853-4.267-5.12-7.68-10.24-6.827L289.28,22.318c-0.853-2.56-4.267-5.12-7.68-5.12H145.067    H8.533C3.413,17.198,0,20.612,0,25.732v477.867c0,5.12,3.413,8.533,8.533,8.533h136.533H281.6c5.12,0,8.533-3.413,8.533-8.533    V117.892L358.4,505.305c0,2.56,1.707,4.267,3.413,5.12c1.707,0.853,3.413,1.707,5.12,1.707c0.853,0,0.853,0,1.707,0l136.533-25.6    C509.44,485.678,512.853,481.412,512,476.292z M76.8,477.998c-23.893,0-42.667-18.773-42.667-42.667s18.773-42.667,42.667-42.667    c23.893,0,42.667,18.773,42.667,42.667S100.693,477.998,76.8,477.998z M119.467,221.998c0,5.12-3.413,8.533-8.533,8.533H42.667    c-5.12,0-8.533-3.413-8.533-8.533V85.465c0-5.12,3.413-8.533,8.533-8.533h68.267c5.12,0,8.533,3.413,8.533,8.533V221.998z     M273.067,495.065H153.6v-460.8h119.467V495.065z M353.28,227.972c-0.853,0-0.853,0-1.707,0c-1.707,0-3.413-0.853-5.12-1.707    c-1.707-1.707-3.413-3.413-3.413-5.12l-5.973-33.28l-11.947-67.413l-5.973-33.28c-0.853-4.267,2.56-9.387,6.827-10.24    l67.413-11.947c2.56,0,4.267,0,5.973,1.707c1.707,1.707,3.413,3.413,3.413,5.12l23.893,134.827    c0.853,4.267-2.56,9.387-6.827,10.24L353.28,227.972z M429.227,466.052c-2.56,0.853-5.12,0.853-7.68,0.853    c-20.48,0-38.4-14.507-41.813-34.987c-1.707-11.093,0.853-22.187,6.827-31.573c5.973-9.387,16.213-15.36,27.307-17.92    c11.093-1.707,22.187,0.853,31.573,6.827c9.387,6.827,15.36,16.213,17.92,27.307C468.48,439.598,452.267,461.785,429.227,466.052z    " fill="#FFFFFF"/>
	</g>
</g>
<g>
</g>
<g>
</g>
<g>
</g>
<g>
</g>
<g>
</g>
<g>
</g>
<g>
</g>
<g>
</g>
<g>
</g>
<g>
</g>
<g>
</g>
<g>
</g>
<g>
</g>
<g>
</g>
<g>
</g>
</svg>
