<?xml version='1.0' encoding='utf-8'?>
<!DOCTYPE svg PUBLIC '-//W3C//DTD SVG 1.1//EN' 'http://www.w3.org/Graphics/SVG/1.1/DTD/svg11.dtd'>
<svg width="64" version="1.1" xmlns="http://www.w3.org/2000/svg" height="64" viewBox="0 0 64 64" xmlns:xlink="http://www.w3.org/1999/xlink" enable-background="new 0 0 64 64">
  <g>
    <g fill="#1D1D1B">
      <path d="m23.967,34.025h-17.967c-3.309,0-6,2.691-6,6v17.975c0,3.309 2.691,6 6,6h17.967c3.309,0 6-2.691 6-6v-17.975c0-3.308-2.692-6-6-6zm2,23.975c0,1.103-0.896,2-2,2h-17.967c-1.104,0-2-0.897-2-2v-17.975c0-1.103 0.896-2 2-2h17.967c1.104,0 2,0.897 2,2v17.975z"/>
      <path d="m58,34.025h-17.969c-3.309,0-6,2.691-6,6v17.975c0,3.309 2.691,6 6,6h17.969c3.309,0 6-2.691 6-6v-17.975c0-3.308-2.691-6-6-6zm2,23.975c0,1.103-0.898,2-2,2h-17.969c-1.102,0-2-0.897-2-2v-17.975c0-1.103 0.898-2 2-2h17.969c1.102,0 2,0.897 2,2v17.975z"/>
      <path d="m23.967,0h-17.967c-3.309,0-6,2.691-6,6v17.969c0,3.309 2.691,6 6,6h17.967c3.309,0 6-2.691 6-6v-17.969c0-3.309-2.692-6-6-6zm2,23.969c0,1.103-0.896,2-2,2h-17.967c-1.104,0-2-0.897-2-2v-17.969c0-1.103 0.896-2 2-2h17.967c1.104,0 2,0.897 2,2v17.969z"/>
      <path d="M58,0H40.031c-3.309,0-6,2.691-6,6v17.969c0,3.309,2.691,6,6,6H58c3.309,0,6-2.691,6-6V6    C64,2.691,61.309,0,58,0z M60,23.969c0,1.103-0.898,2-2,2H40.031c-1.102,0-2-0.897-2-2V6c0-1.103,0.898-2,2-2H58    c1.102,0,2,0.897,2,2V23.969z"/>
    </g>
  </g>
</svg>
