<?xml version="1.0" encoding="iso-8859-1"?>
<!-- Generator: Adobe Illustrator 16.0.0, SVG Export Plug-In . SVG Version: 6.00 Build 0)  -->
<!DOCTYPE svg PUBLIC "-//W3C//DTD SVG 1.1//EN" "http://www.w3.org/Graphics/SVG/1.1/DTD/svg11.dtd">
<svg xmlns="http://www.w3.org/2000/svg" xmlns:xlink="http://www.w3.org/1999/xlink" version="1.1" id="Capa_1" x="0px" y="0px" width="512px" height="512px" viewBox="0 0 76.544 76.544" style="enable-background:new 0 0 76.544 76.544;" xml:space="preserve">
<g>
	<g id="_x33__x5F_2">
		<g>
			<path d="M69.314,71.295l-12.808-1.402c11.476-6.355,19.278-18.574,19.278-32.609C75.785,16.725,59.088,0,38.564,0     c-0.033,0-0.064,0.003-0.097,0.004C38.45,0.004,38.435,0,38.419,0c-0.051,0-0.099,0.011-0.148,0.014     c-0.083,0.007-0.168,0.013-0.253,0.013V0.04c-1.259,0.195-2.227,1.275-2.227,2.592c0,1.338,1.001,2.433,2.293,2.598v0.059     c0.162-0.002,0.318-0.023,0.48-0.023c17.654,0,31.966,14.335,31.966,32.019c0,12.083-6.699,22.576-16.566,28.023l1.268-11.586     c0.157-1.445-0.883-2.746-2.326-2.904c-1.449-0.157-2.74,0.887-2.897,2.332L47.99,71.605c-0.076,0.69,0.125,1.389,0.562,1.933     s1.071,0.892,1.765,0.969l18.428,2.021c0.097,0.011,0.192,0.017,0.289,0.017c1.322,0,2.461-0.998,2.608-2.346     C71.799,72.754,70.757,71.454,69.314,71.295z M38.461,71.312l-0.001-0.059c-0.162,0.004-0.317,0.025-0.48,0.025     c-17.655,0-31.966-14.336-31.966-32.021c0-12.084,6.699-22.575,16.566-28.024l-1.267,11.588     c-0.158,1.443,0.882,2.743,2.326,2.902c1.449,0.159,2.74-0.885,2.897-2.33l2.019-18.458c0.076-0.693-0.126-1.389-0.562-1.935     c-0.436-0.544-1.07-0.892-1.763-0.968L7.801,0.016C7.703,0.004,7.608,0,7.512,0C6.19,0,5.051,0.997,4.904,2.346     C4.746,3.789,5.788,5.09,7.23,5.247l12.809,1.405C8.564,13.007,0.759,25.224,0.759,39.261c0,20.558,16.698,37.283,37.221,37.283     c0.032,0,0.065-0.005,0.097-0.006c0.017,0.001,0.032,0.006,0.049,0.006c0.05,0,0.098-0.013,0.147-0.017     c0.084-0.006,0.168-0.01,0.253-0.012v-0.014c1.258-0.193,2.227-1.275,2.227-2.592C40.753,72.573,39.752,71.48,38.461,71.312z" fill="#FFFFFF"/>
		</g>
	</g>
</g>
<g>
</g>
<g>
</g>
<g>
</g>
<g>
</g>
<g>
</g>
<g>
</g>
<g>
</g>
<g>
</g>
<g>
</g>
<g>
</g>
<g>
</g>
<g>
</g>
<g>
</g>
<g>
</g>
<g>
</g>
</svg>
